<?xml version="1.0" encoding="UTF-8"?><svg xmlns="http://www.w3.org/2000/svg" xmlns:xlink="http://www.w3.org/1999/xlink" fill-opacity="1" color-rendering="auto" color-interpolation="auto" text-rendering="auto" stroke="black" stroke-linecap="square" width="280" stroke-miterlimit="10" shape-rendering="auto" stroke-opacity="1" fill="black" stroke-dasharray="none" font-weight="normal" stroke-width="1" height="276" font-family="'Dialog'" font-style="normal" stroke-linejoin="miter" font-size="12px" stroke-dashoffset="0" image-rendering="auto">
  <!--Generated by ySVG 2.5-->
  <defs id="genericDefs"/>
  <g>
    <defs id="defs1">
      <linearGradient x1="90" gradientUnits="userSpaceOnUse" x2="200" y1="0" y2="56" id="linearGradient1" spreadMethod="reflect">
        <stop stop-opacity="1" stop-color="rgb(232,238,247)" offset="0%"/>
        <stop stop-opacity="1" stop-color="rgb(183,201,227)" offset="100%"/>
      </linearGradient>
      <linearGradient x1="75" gradientUnits="userSpaceOnUse" x2="215" y1="141" y2="181" id="linearGradient2" spreadMethod="reflect">
        <stop stop-opacity="1" stop-color="rgb(232,238,247)" offset="0%"/>
        <stop stop-opacity="1" stop-color="rgb(183,201,227)" offset="100%"/>
      </linearGradient>
      <linearGradient x1="85.5" gradientUnits="userSpaceOnUse" x2="204.5" y1="76" y2="121" id="linearGradient3" spreadMethod="reflect">
        <stop stop-opacity="1" stop-color="rgb(232,238,247)" offset="0%"/>
        <stop stop-opacity="1" stop-color="rgb(183,201,227)" offset="100%"/>
      </linearGradient>
      <linearGradient x1="110" gradientUnits="userSpaceOnUse" x2="250" y1="206" y2="246" id="linearGradient4" spreadMethod="reflect">
        <stop stop-opacity="1" stop-color="rgb(232,238,247)" offset="0%"/>
        <stop stop-opacity="1" stop-color="rgb(183,201,227)" offset="100%"/>
      </linearGradient>
      <linearGradient x1="0" gradientUnits="userSpaceOnUse" x2="80" y1="206" y2="246" id="linearGradient5" spreadMethod="reflect">
        <stop stop-opacity="1" stop-color="rgb(232,238,247)" offset="0%"/>
        <stop stop-opacity="1" stop-color="rgb(183,201,227)" offset="100%"/>
      </linearGradient>
      <clipPath clipPathUnits="userSpaceOnUse" id="clipPath1">
        <path d="M0 0 L280 0 L280 276 L0 276 L0 0 Z"/>
      </clipPath>
      <clipPath clipPathUnits="userSpaceOnUse" id="clipPath2">
        <path d="M-15 -15 L265 -15 L265 261 L-15 261 L-15 -15 Z"/>
      </clipPath>
    </defs>
    <g fill="white" text-rendering="geometricPrecision" shape-rendering="geometricPrecision" transform="translate(15,15)" stroke="white">
      <rect x="-15" width="280" height="276" y="-15" clip-path="url(#clipPath2)" stroke="none"/>
    </g>
    <g fill="url(#linearGradient1)" text-rendering="geometricPrecision" shape-rendering="geometricPrecision" transform="matrix(1,0,0,1,15,15)" stroke="url(#linearGradient1)">
      <circle r="28" clip-path="url(#clipPath2)" cx="145" cy="28" stroke="none"/>
    </g>
    <g text-rendering="geometricPrecision" stroke-miterlimit="1.45" shape-rendering="geometricPrecision" transform="matrix(1,0,0,1,15,15)" stroke-linecap="butt">
      <circle fill="none" r="28" clip-path="url(#clipPath2)" cx="145" cy="28"/>
      <text x="120.0332" xml:space="preserve" y="32.1543" clip-path="url(#clipPath2)" font-family="sans-serif" stroke="none">začiatok</text>
    </g>
    <g fill="url(#linearGradient2)" text-rendering="geometricPrecision" shape-rendering="geometricPrecision" transform="matrix(1,0,0,1,15,15)" stroke="url(#linearGradient2)">
      <path d="M85 141 L205 141 L215 161 L205 181 L85 181 L75 161 Z" stroke="none" clip-path="url(#clipPath2)"/>
    </g>
    <g text-rendering="geometricPrecision" stroke-miterlimit="1.45" shape-rendering="geometricPrecision" transform="matrix(1,0,0,1,15,15)" stroke-linecap="butt">
      <path fill="none" d="M85 141 L205 141 L215 161 L205 181 L85 181 L75 161 Z" clip-path="url(#clipPath2)"/>
      <text x="98.7402" xml:space="preserve" y="158.1699" clip-path="url(#clipPath2)" font-family="sans-serif" stroke="none">Pokiaľ je počet </text>
      <text x="102.0947" xml:space="preserve" y="172.1387" clip-path="url(#clipPath2)" font-family="sans-serif" stroke="none">väčší ako nula</text>
    </g>
    <g fill="url(#linearGradient3)" text-rendering="geometricPrecision" shape-rendering="geometricPrecision" transform="matrix(1,0,0,1,15,15)" stroke="url(#linearGradient3)">
      <path d="M96.975 76 L204.5 76 L193.025 121 L85.5 121 Z" stroke="none" clip-path="url(#clipPath2)"/>
    </g>
    <g text-rendering="geometricPrecision" stroke-miterlimit="1.45" shape-rendering="geometricPrecision" transform="matrix(1,0,0,1,15,15)" stroke-linecap="butt">
      <path fill="none" d="M96.975 76 L204.5 76 L193.025 121 L85.5 121 Z" clip-path="url(#clipPath2)"/>
      <text x="105.4434" xml:space="preserve" y="102.6543" clip-path="url(#clipPath2)" font-family="sans-serif" stroke="none">Načítaj počet</text>
    </g>
    <g fill="url(#linearGradient4)" text-rendering="geometricPrecision" shape-rendering="geometricPrecision" transform="matrix(1,0,0,1,15,15)" stroke="url(#linearGradient4)">
      <path d="M120.2 206 L250 206 L239.8 246 L110 246 Z" stroke="none" clip-path="url(#clipPath2)"/>
    </g>
    <g text-rendering="geometricPrecision" stroke-miterlimit="1.45" shape-rendering="geometricPrecision" transform="matrix(1,0,0,1,15,15)" stroke-linecap="butt">
      <path fill="none" d="M120.2 206 L250 206 L239.8 246 L110 246 Z" clip-path="url(#clipPath2)"/>
      <text x="134.0215" xml:space="preserve" y="223.1699" clip-path="url(#clipPath2)" font-family="sans-serif" stroke="none">Načítaj položku</text>
      <text x="127.7168" xml:space="preserve" y="237.1387" clip-path="url(#clipPath2)" font-family="sans-serif" stroke="none">počet = počet - 1</text>
    </g>
    <g fill="url(#linearGradient5)" text-rendering="geometricPrecision" shape-rendering="geometricPrecision" transform="matrix(1,0,0,1,15,15)" stroke="url(#linearGradient5)">
      <rect x="0" y="206" clip-path="url(#clipPath2)" width="80" rx="20" ry="20" height="40" stroke="none"/>
    </g>
    <g text-rendering="geometricPrecision" stroke-miterlimit="1.45" shape-rendering="geometricPrecision" transform="matrix(1,0,0,1,15,15)" stroke-linecap="butt">
      <rect x="0" y="206" clip-path="url(#clipPath2)" fill="none" width="80" rx="20" ry="20" height="40"/>
      <text x="20.3945" xml:space="preserve" y="230.1543" clip-path="url(#clipPath2)" font-family="sans-serif" stroke="none">koniec</text>
    </g>
    <g text-rendering="geometricPrecision" stroke-miterlimit="1.45" shape-rendering="geometricPrecision" transform="matrix(1,0,0,1,15,15)" stroke-linecap="butt">
      <path fill="none" d="M145 56 L145 67.9609" clip-path="url(#clipPath2)"/>
    </g>
    <g text-rendering="geometricPrecision" stroke-miterlimit="1.45" shape-rendering="geometricPrecision" transform="matrix(1,0,0,1,15,15)" stroke-linecap="butt">
      <path d="M145 75.9609 L150 63.9609 L145 66.9609 L140 63.9609 Z" stroke="none" clip-path="url(#clipPath2)"/>
      <path fill="none" d="M145 121 L145 132.9609" clip-path="url(#clipPath2)"/>
      <path d="M145 140.9609 L150 128.9609 L145 131.9609 L140 128.9609 Z" clip-path="url(#clipPath2)" stroke="none"/>
      <path fill="none" d="M145 181 L145 197.9512" clip-path="url(#clipPath2)"/>
      <path d="M145 205.9512 L150 193.9512 L145 196.9512 L140 193.9512 Z" clip-path="url(#clipPath2)" stroke="none"/>
      <path fill="none" d="M215 205.9609 L215 196 L191.6667 196 L191.6667 189" clip-path="url(#clipPath2)"/>
      <path d="M191.6667 181 L186.6667 193 L191.6667 190 L196.6667 193 Z" clip-path="url(#clipPath2)" stroke="none"/>
      <path fill="none" d="M98.3333 181 L98.3333 191 L40 191 L40 197.9707" clip-path="url(#clipPath2)"/>
      <path d="M40 205.9707 L45 193.9707 L40 196.9707 L35 193.9707 Z" clip-path="url(#clipPath2)" stroke="none"/>
    </g>
  </g>
</svg>
