<svg xmlns="http://www.w3.org/2000/svg" xmlns:xlink="http://www.w3.org/1999/xlink" xmlns:lucid="lucid" width="740" height="440"><g transform="translate(-340 -20)" lucid:page-tab-id="0_0"><path d="M720 90c0 27.6-22.4 50-50 50s-50-22.4-50-50 22.4-50 50-50 50 22.4 50 50z" stroke="#000" stroke-width="2" fill="#fff"/><use xlink:href="#a" transform="matrix(1,0,0,1,625,45) translate(6.599999999999994 37.8)"/><use xlink:href="#b" transform="matrix(1,0,0,1,625,45) translate(27.525 59.4)"/><path d="M560 230c0 27.6-26.86 50-60 50s-60-22.4-60-50 26.86-50 60-50 60 22.4 60 50z" stroke="#000" stroke-width="2" fill="#fff"/><use xlink:href="#c" transform="matrix(1,0,0,1,445,185) translate(20.525 37.8)"/><use xlink:href="#b" transform="matrix(1,0,0,1,445,185) translate(37.525 59.4)"/><path d="M720 390c0 27.6-22.4 50-50 50s-50-22.4-50-50 22.4-50 50-50 50 22.4 50 50z" stroke="#000" stroke-width="2" fill="#fff"/><use xlink:href="#d" transform="matrix(1,0,0,1,625,345) translate(5.524999999999999 37.8)"/><use xlink:href="#b" transform="matrix(1,0,0,1,625,345) translate(27.525 59.4)"/><path d="M900 230c0 27.6-26.86 50-60 50s-60-22.4-60-50 26.86-50 60-50 60 22.4 60 50z" stroke="#000" stroke-width="2" fill="#fff"/><use xlink:href="#e" transform="matrix(1,0,0,1,785,185) translate(7.5 37.8)"/><use xlink:href="#b" transform="matrix(1,0,0,1,785,185) translate(37.525 59.4)"/><path d="M670 140v200" stroke="#000" stroke-width="2" fill="none"/><path d="M670 140h-1v-.05zm1 0h-1l1-.04zM670 340l-4.64-14.27h9.28z"/><path d="M671.03 340.05L670 340l-1.04.04-4.97-15.3h12zm-4.3-13.32l3.27 10.03 3.26-10.03z"/><path d="M720 90h120v90" stroke="#000" stroke-width="2" fill="none"/><path d="M720 91h-.05l.05-1-.04-1h.04zM840 180l-4.64-14.27h9.28z"/><path d="M841.04 180.04L840 180l-1.04.04-4.97-15.3h12zm-4.3-13.3l3.26 10.02 3.26-10.03z"/><path d="M360 100h160v60H360z" fill="none"/><use xlink:href="#f" transform="matrix(1,0,0,1,365,105) translate(55.77777777777777 30.333333333333336)"/><use xlink:href="#g" transform="matrix(1,0,0,1,365,105) translate(76.44444444444444 30.333333333333336)"/><path d="M620 90H500v90" stroke="#000" stroke-width="2" fill="none"/><path d="M620 90l.04 1H620v-2h.05zM500 180l-4.64-14.27h9.28z"/><path d="M501.04 180.04L500 180l-1.04.04-4.97-15.3h12zm-4.3-13.3l3.26 10.02 3.26-10.03z"/><path d="M580 140h100v60H580z" fill="none"/><g><use xlink:href="#h" transform="matrix(1,0,0,1,585,145) translate(41.2962962962963 30.333333333333336)"/></g><path d="M900 100h160v60H900z" fill="none"/><g><use xlink:href="#i" transform="matrix(1,0,0,1,905,105) translate(19.18518518518519 30.333333333333336)"/></g><defs><path d="M190 0L58-211 59 0H30v-248h39L202-35l-2-213h31V0h-41" id="j"/><path d="M100-194c62-1 85 37 85 99 1 63-27 99-86 99S16-35 15-95c0-66 28-99 85-99zM99-20c44 1 53-31 53-75 0-43-8-75-51-75s-53 32-53 75 10 74 51 75" id="k"/><path d="M114-163C36-179 61-72 57 0H25l-1-190h30c1 12-1 29 2 39 6-27 23-49 58-41v29" id="l"/><path d="M210-169c-67 3-38 105-44 169h-31v-121c0-29-5-50-35-48C34-165 62-65 56 0H25l-1-190h30c1 10-1 24 2 32 10-44 99-50 107 0 11-21 27-35 58-36 85-2 47 119 55 194h-31v-121c0-29-5-49-35-48" id="m"/><path d="M141-36C126-15 110 5 73 4 37 3 15-17 15-53c-1-64 63-63 125-63 3-35-9-54-41-54-24 1-41 7-42 31l-33-3c5-37 33-52 76-52 45 0 72 20 72 64v82c-1 20 7 32 28 27v20c-31 9-61-2-59-35zM48-53c0 20 12 33 32 33 41-3 63-29 60-74-43 2-92-5-92 41zm25-158c8-23 27-35 38-54h36v5l-58 49H73" id="n"/><path d="M24 0v-261h32V0H24" id="o"/><path d="M117-194c89-4 53 116 60 194h-32v-121c0-31-8-49-39-48C34-167 62-67 57 0H25l-1-190h30c1 10-1 24 2 32 11-22 29-35 61-36" id="p"/><path d="M179-190L93 31C79 59 56 82 12 73V49c39 6 53-20 64-50L1-190h34L92-34l54-156h33" id="q"/><g id="a"><use transform="matrix(0.05,0,0,0.05,0,0)" xlink:href="#j"/><use transform="matrix(0.05,0,0,0.05,12.950000000000001,0)" xlink:href="#k"/><use transform="matrix(0.05,0,0,0.05,22.950000000000003,0)" xlink:href="#l"/><use transform="matrix(0.05,0,0,0.05,28.900000000000002,0)" xlink:href="#m"/><use transform="matrix(0.05,0,0,0.05,43.85,0)" xlink:href="#n"/><use transform="matrix(0.05,0,0,0.05,53.85,0)" xlink:href="#o"/><use transform="matrix(0.05,0,0,0.05,57.800000000000004,0)" xlink:href="#p"/><use transform="matrix(0.05,0,0,0.05,67.80000000000001,0)" xlink:href="#q"/></g><path d="M100-194c62-1 85 37 85 99 1 63-27 99-86 99S16-35 15-95c0-66 28-99 85-99zM99-20c44 1 53-31 53-75 0-43-8-75-51-75s-53 32-53 75 10 74 51 75zM76-211c8-23 27-35 38-54h36v5l-58 49H76" id="r"/><path d="M85-194c31 0 48 13 60 33l-1-100h32l1 261h-30c-2-10 0-23-3-31C134-8 116 4 85 4 32 4 16-35 15-94c0-66 23-100 70-100zm9 24c-40 0-46 34-46 75 0 40 6 74 45 74 42 0 51-32 51-76 0-42-9-74-50-73" id="s"/><g id="b"><use transform="matrix(0.05,0,0,0.05,0,0)" xlink:href="#m"/><use transform="matrix(0.05,0,0,0.05,14.950000000000001,0)" xlink:href="#r"/><use transform="matrix(0.05,0,0,0.05,24.950000000000003,0)" xlink:href="#s"/></g><path d="M137 0h-34L2-248h35l83 218 83-218h36" id="t"/><path d="M143 0L79-87 56-68V0H24v-261h32v163l83-92h37l-77 82L181 0h-38" id="u"/><path d="M141-36C126-15 110 5 73 4 37 3 15-17 15-53c-1-64 63-63 125-63 3-35-9-54-41-54-24 1-41 7-42 31l-33-3c5-37 33-52 76-52 45 0 72 20 72 64v82c-1 20 7 32 28 27v20c-31 9-61-2-59-35zM48-53c0 20 12 33 32 33 41-3 63-29 60-74-43 2-92-5-92 41" id="v"/><path d="M96-169c-40 0-48 33-48 73s9 75 48 75c24 0 41-14 43-38l32 2c-6 37-31 61-74 61-59 0-76-41-82-99-10-93 101-131 147-64 4 7 5 14 7 22l-32 3c-4-21-16-35-41-35" id="w"/><path d="M34 0v-190h32V0H34zM24-211c8-23 27-35 38-54h36v5l-58 49H24" id="x"/><g id="c"><use transform="matrix(0.05,0,0,0.05,0,0)" xlink:href="#t"/><use transform="matrix(0.05,0,0,0.05,12,0)" xlink:href="#u"/><use transform="matrix(0.05,0,0,0.05,21,0)" xlink:href="#o"/><use transform="matrix(0.05,0,0,0.05,24.95,0)" xlink:href="#v"/><use transform="matrix(0.05,0,0,0.05,34.95,0)" xlink:href="#s"/><use transform="matrix(0.05,0,0,0.05,44.95,0)" xlink:href="#v"/><use transform="matrix(0.05,0,0,0.05,54.95,0)" xlink:href="#w"/><use transform="matrix(0.05,0,0,0.05,63.95,0)" xlink:href="#x"/></g><path d="M30-248c87 1 191-15 191 75 0 78-77 80-158 76V0H30v-248zm33 125c57 0 124 11 124-50 0-59-68-47-124-48v98" id="y"/><path d="M9 0v-24l116-142H16v-24h144v24L44-24h123V0H9" id="z"/><path d="M108 0H70L1-190h34L89-25l56-165h34" id="A"/><path d="M179-190L93 31C79 59 56 82 12 73V49c39 6 53-20 64-50L1-190h34L92-34l54-156h33zM63-211c8-23 27-35 38-54h36v5l-58 49H63" id="B"/><g id="d"><use transform="matrix(0.05,0,0,0.05,0,0)" xlink:href="#y"/><use transform="matrix(0.05,0,0,0.05,12,0)" xlink:href="#l"/><use transform="matrix(0.05,0,0,0.05,17.95,0)" xlink:href="#x"/><use transform="matrix(0.05,0,0,0.05,22.95,0)" xlink:href="#u"/><use transform="matrix(0.05,0,0,0.05,31.950000000000003,0)" xlink:href="#v"/><use transform="matrix(0.05,0,0,0.05,41.95,0)" xlink:href="#z"/><use transform="matrix(0.05,0,0,0.05,50.95,0)" xlink:href="#k"/><use transform="matrix(0.05,0,0,0.05,60.95,0)" xlink:href="#A"/><use transform="matrix(0.05,0,0,0.05,69.95,0)" xlink:href="#B"/></g><path d="M140-251c81 0 123 46 123 126C263-46 219 4 140 4 59 4 17-45 17-125s42-126 123-126zm0 227c63 0 89-41 89-101s-29-99-89-99c-61 0-89 39-89 99S79-25 140-24" id="C"/><path d="M96-169c-40 0-48 33-48 73s9 75 48 75c24 0 41-14 43-38l32 2c-6 37-31 61-74 61-59 0-76-41-82-99-10-93 101-131 147-64 4 7 5 14 7 22l-32 3c-4-21-16-35-41-35zm19-42H79c-13-18-31-30-41-51 32-2 39 20 59 30 19-10 26-32 57-30-9 21-27 33-39 51" id="D"/><g id="e"><use transform="matrix(0.05,0,0,0.05,0,0)" xlink:href="#C"/><use transform="matrix(0.05,0,0,0.05,14,0)" xlink:href="#z"/><use transform="matrix(0.05,0,0,0.05,23,0)" xlink:href="#p"/><use transform="matrix(0.05,0,0,0.05,33,0)" xlink:href="#v"/><use transform="matrix(0.05,0,0,0.05,43,0)" xlink:href="#D"/><use transform="matrix(0.05,0,0,0.05,52,0)" xlink:href="#k"/><use transform="matrix(0.05,0,0,0.05,62,0)" xlink:href="#A"/><use transform="matrix(0.05,0,0,0.05,71,0)" xlink:href="#v"/><use transform="matrix(0.05,0,0,0.05,81,0)" xlink:href="#w"/><use transform="matrix(0.05,0,0,0.05,90,0)" xlink:href="#x"/></g><path d="M24-231v-30h32v30H24zM24 0v-190h32V0H24" id="E"/><path d="M68-38c1 34 0 65-14 84H32c9-13 17-26 17-46H33v-38h35" id="F"/><g id="f"><use transform="matrix(0.07407407407407408,0,0,0.07407407407407408,0,0)" xlink:href="#E"/><use transform="matrix(0.07407407407407408,0,0,0.07407407407407408,5.851851851851853,0)" xlink:href="#F"/></g><path d="M205 0l-28-72H64L36 0H1l101-248h38L239 0h-34zm-38-99l-47-123c-12 45-31 82-46 123h93" id="G"/><use transform="matrix(0.07407407407407408,0,0,0.07407407407407408,0,0)" xlink:href="#G" id="g"/><path d="M33-154v-36h34v36H33zM33 0v-36h34V0H33" id="H"/><use transform="matrix(0.07407407407407408,0,0,0.07407407407407408,0,0)" xlink:href="#H" id="h"/><path d="M212-179c-10-28-35-45-73-45-59 0-87 40-87 99 0 60 29 101 89 101 43 0 62-24 78-52l27 14C228-24 195 4 139 4 59 4 22-46 18-125c-6-104 99-153 187-111 19 9 31 26 39 46" id="I"/><path d="M59-47c-2 24 18 29 38 22v24C64 9 27 4 27-40v-127H5v-23h24l9-43h21v43h35v23H59v120" id="J"/><path d="M118-107v75H92v-75H18v-26h74v-75h26v75h74v26h-74" id="K"/><g id="i"><use transform="matrix(0.07407407407407408,0,0,0.07407407407407408,0,0)" xlink:href="#A"/><use transform="matrix(0.07407407407407408,0,0,0.07407407407407408,11.333333333333336,0)" xlink:href="#F"/><use transform="matrix(0.07407407407407408,0,0,0.07407407407407408,18.740740740740744,0)" xlink:href="#t"/><use transform="matrix(0.07407407407407408,0,0,0.07407407407407408,34.074074074074076,0)" xlink:href="#F"/><use transform="matrix(0.07407407407407408,0,0,0.07407407407407408,41.48148148148148,0)" xlink:href="#I"/><use transform="matrix(0.07407407407407408,0,0,0.07407407407407408,60.66666666666667,0)" xlink:href="#J"/><use transform="matrix(0.07407407407407408,0,0,0.07407407407407408,68.07407407407408,0)" xlink:href="#l"/><use transform="matrix(0.07407407407407408,0,0,0.07407407407407408,76.88888888888889,0)" xlink:href="#o"/><use transform="matrix(0.07407407407407408,0,0,0.07407407407407408,82.74074074074073,0)" xlink:href="#K"/><use transform="matrix(0.07407407407407408,0,0,0.07407407407407408,98.29629629629629,0)" xlink:href="#A"/></g></defs></g></svg>