<?xml version="1.0" encoding="UTF-8"?><svg xmlns="http://www.w3.org/2000/svg" xmlns:xlink="http://www.w3.org/1999/xlink" fill-opacity="1" color-rendering="auto" color-interpolation="auto" text-rendering="auto" stroke="black" stroke-linecap="square" width="780" stroke-miterlimit="10" shape-rendering="auto" stroke-opacity="1" fill="black" stroke-dasharray="none" font-weight="normal" stroke-width="1" height="340" font-family="'Dialog'" font-style="normal" stroke-linejoin="miter" font-size="12px" stroke-dashoffset="0" image-rendering="auto">
  <!--Generated by ySVG 2.5-->
  <defs id="genericDefs"/>
  <g>
    <defs id="defs1">
      <clipPath clipPathUnits="userSpaceOnUse" id="clipPath1">
        <path d="M0 0 L780 0 L780 340 L0 340 L0 0 Z"/>
      </clipPath>
      <clipPath clipPathUnits="userSpaceOnUse" id="clipPath2">
        <path d="M-15 -15 L765 -15 L765 325 L-15 325 L-15 -15 Z"/>
      </clipPath>
    </defs>
    <g fill="white" text-rendering="geometricPrecision" shape-rendering="geometricPrecision" transform="translate(15,15)" stroke="white">
      <rect x="-15" width="780" height="340" y="-15" clip-path="url(#clipPath2)" stroke="none"/>
    </g>
    <g fill="rgb(255,204,0)" text-rendering="geometricPrecision" shape-rendering="geometricPrecision" transform="matrix(1,0,0,1,15,15)" stroke="rgb(255,204,0)">
      <ellipse rx="44.5" ry="39.5" clip-path="url(#clipPath2)" cx="118.842" cy="154.809" stroke="none"/>
    </g>
    <g text-rendering="geometricPrecision" stroke-miterlimit="1.45" shape-rendering="geometricPrecision" transform="matrix(1,0,0,1,15,15)" stroke-linecap="butt">
      <ellipse rx="44.5" fill="none" ry="39.5" clip-path="url(#clipPath2)" cx="118.842" cy="154.809"/>
      <text x="82.8654" xml:space="preserve" y="158.9633" clip-path="url(#clipPath2)" font-family="sans-serif" stroke="none">Preprocesor</text>
    </g>
    <g fill="rgb(255,204,0)" text-rendering="geometricPrecision" shape-rendering="geometricPrecision" transform="matrix(1,0,0,1,15,15)" stroke="rgb(255,204,0)">
      <ellipse rx="44.5" ry="39.5" clip-path="url(#clipPath2)" cx="595.6028" cy="154.809" stroke="none"/>
    </g>
    <g text-rendering="geometricPrecision" stroke-miterlimit="1.45" shape-rendering="geometricPrecision" transform="matrix(1,0,0,1,15,15)" stroke-linecap="butt">
      <ellipse rx="44.5" fill="none" ry="39.5" clip-path="url(#clipPath2)" cx="595.6028" cy="154.809"/>
      <text x="577.055" xml:space="preserve" y="158.9633" clip-path="url(#clipPath2)" font-family="sans-serif" stroke="none">LInker</text>
    </g>
    <g fill="rgb(255,204,0)" text-rendering="geometricPrecision" shape-rendering="geometricPrecision" transform="matrix(1,0,0,1,15,15)" stroke="rgb(255,204,0)">
      <ellipse rx="44.5" ry="39.5" clip-path="url(#clipPath2)" cx="287.8462" cy="154.809" stroke="none"/>
    </g>
    <g text-rendering="geometricPrecision" stroke-miterlimit="1.45" shape-rendering="geometricPrecision" transform="matrix(1,0,0,1,15,15)" stroke-linecap="butt">
      <ellipse rx="44.5" fill="none" ry="39.5" clip-path="url(#clipPath2)" cx="287.8462" cy="154.809"/>
      <text x="255.0864" xml:space="preserve" y="158.9633" clip-path="url(#clipPath2)" font-family="sans-serif" stroke="none">Kompilátor</text>
    </g>
    <g fill="rgb(255,204,0)" text-rendering="geometricPrecision" shape-rendering="geometricPrecision" transform="matrix(1,0,0,1,15,15)" stroke="rgb(255,204,0)">
      <rect x="0" width="74" height="49" y="0" clip-path="url(#clipPath2)" stroke="none"/>
    </g>
    <g text-rendering="geometricPrecision" stroke-miterlimit="1.45" shape-rendering="geometricPrecision" transform="matrix(1,0,0,1,15,15)" stroke-linecap="butt">
      <rect fill="none" x="0" width="74" height="49" y="0" clip-path="url(#clipPath2)"/>
      <text x="12.5078" xml:space="preserve" y="28.6543" clip-path="url(#clipPath2)" font-family="sans-serif" stroke="none">.h súbor</text>
    </g>
    <g fill="rgb(255,204,0)" text-rendering="geometricPrecision" shape-rendering="geometricPrecision" transform="matrix(1,0,0,1,15,15)" stroke="rgb(255,204,0)">
      <rect x="404.7245" width="74" height="49" y="130.309" clip-path="url(#clipPath2)" stroke="none"/>
    </g>
    <g text-rendering="geometricPrecision" stroke-miterlimit="1.45" shape-rendering="geometricPrecision" transform="matrix(1,0,0,1,15,15)" stroke-linecap="butt">
      <rect fill="none" x="404.7245" width="74" height="49" y="130.309" clip-path="url(#clipPath2)"/>
      <text x="417.3641" xml:space="preserve" y="158.9633" clip-path="url(#clipPath2)" font-family="sans-serif" stroke="none">.o súbor</text>
    </g>
    <g fill="rgb(255,204,0)" text-rendering="geometricPrecision" shape-rendering="geometricPrecision" transform="matrix(1,0,0,1,15,15)" stroke="rgb(255,204,0)">
      <rect x="665.979" width="74" height="49" y="240.5311" clip-path="url(#clipPath2)" stroke="none"/>
    </g>
    <g text-rendering="geometricPrecision" stroke-miterlimit="1.45" shape-rendering="geometricPrecision" transform="matrix(1,0,0,1,15,15)" stroke-linecap="butt">
      <rect fill="none" x="665.979" width="74" height="49" y="240.5311" clip-path="url(#clipPath2)"/>
      <text x="678.6128" xml:space="preserve" y="262.201" clip-path="url(#clipPath2)" font-family="sans-serif" stroke="none">.a súbor</text>
      <text x="673.7583" xml:space="preserve" y="276.1697" clip-path="url(#clipPath2)" font-family="sans-serif" stroke="none">(knižnica)</text>
    </g>
    <g fill="rgb(255,204,0)" text-rendering="geometricPrecision" shape-rendering="geometricPrecision" transform="matrix(1,0,0,1,15,15)" stroke="rgb(255,204,0)">
      <rect x="0" width="74" height="49" y="260.618" clip-path="url(#clipPath2)" stroke="none"/>
    </g>
    <g text-rendering="geometricPrecision" stroke-miterlimit="1.45" shape-rendering="geometricPrecision" transform="matrix(1,0,0,1,15,15)" stroke-linecap="butt">
      <rect fill="none" x="0" width="74" height="49" y="260.618" clip-path="url(#clipPath2)"/>
      <text x="13.0117" xml:space="preserve" y="289.2723" clip-path="url(#clipPath2)" font-family="sans-serif" stroke="none">.c súbor</text>
    </g>
    <g fill="rgb(255,204,0)" text-rendering="geometricPrecision" shape-rendering="geometricPrecision" transform="matrix(1,0,0,1,15,15)" stroke="rgb(255,204,0)">
      <rect x="667.2504" width="82" height="49" y="20.57" clip-path="url(#clipPath2)" stroke="none"/>
    </g>
    <g text-rendering="geometricPrecision" stroke-miterlimit="1.45" shape-rendering="geometricPrecision" transform="matrix(1,0,0,1,15,15)" stroke-linecap="butt">
      <rect fill="none" x="667.2504" width="82" height="49" y="20.57" clip-path="url(#clipPath2)"/>
      <text x="672.8129" xml:space="preserve" y="42.2399" clip-path="url(#clipPath2)" font-family="sans-serif" stroke="none">spustiteľný </text>
      <text x="691.3754" xml:space="preserve" y="56.2086" clip-path="url(#clipPath2)" font-family="sans-serif" stroke="none">súbor</text>
      <path fill="none" d="M163.342 154.809 L235.3462 154.809" clip-path="url(#clipPath2)"/>
      <path d="M243.3462 154.809 L231.3462 149.809 L234.3462 154.809 L231.3462 159.809 Z" clip-path="url(#clipPath2)" stroke="none"/>
      <path fill="none" d="M52.3875 49 L92.9185 113.5335" clip-path="url(#clipPath2)"/>
      <path d="M97.1734 120.3082 L95.0252 107.4869 L92.3866 112.6867 L86.5569 112.8055 Z" clip-path="url(#clipPath2)" stroke="none"/>
      <path fill="none" d="M332.3462 154.809 L396.7245 154.809" clip-path="url(#clipPath2)"/>
      <path d="M404.7245 154.809 L392.7245 149.809 L395.7245 154.809 L392.7245 159.809 Z" clip-path="url(#clipPath2)" stroke="none"/>
      <path fill="none" d="M478.7245 154.809 L543.1028 154.809" clip-path="url(#clipPath2)"/>
      <path d="M551.1028 154.809 L539.1028 149.809 L542.1028 154.809 L539.1028 159.809 Z" clip-path="url(#clipPath2)" stroke="none"/>
      <path fill="none" d="M679.1116 240.5311 L630.2922 190.4178" clip-path="url(#clipPath2)"/>
      <path d="M624.7098 184.6875 L629.502 196.772 L630.9901 191.1341 L636.6649 189.794 Z" clip-path="url(#clipPath2)" stroke="none"/>
      <path fill="none" d="M52.3875 260.618 L92.9185 196.0845" clip-path="url(#clipPath2)"/>
      <path d="M97.1734 189.3098 L86.5569 196.8125 L92.3866 196.9313 L95.0252 202.1311 Z" clip-path="url(#clipPath2)" stroke="none"/>
      <path fill="none" d="M625.5742 125.6115 L677.3707 75.1524" clip-path="url(#clipPath2)"/>
      <path d="M683.1011 69.57 L671.0165 74.3621 L676.6544 75.8502 L677.9946 81.525 Z" clip-path="url(#clipPath2)" stroke="none"/>
    </g>
  </g>
</svg>
